<svg width="109" height="40" viewBox="0 0 109 40" fill="none" xmlns="http://www.w3.org/2000/svg">
<path d="M0 40.0001L0 8.80433H3.60365L3.60365 12.2658C6.92102 8.70833 10.8278 7.56162 15.3913 8.45232C18.3397 9.04855 20.9444 10.6763 22.6884 13.0125C24.562 15.4208 25.4565 18.3914 25.2068 21.3768C24.9572 24.3623 23.5804 27.1615 21.33 29.2584C17.4625 32.9279 9.75006 34.5119 3.65417 28.5117L3.65417 40.0001H0ZM12.4331 11.5618C7.34762 11.5618 3.40719 15.4552 3.4128 20.4208C3.39269 21.5782 3.61519 22.7279 4.06732 23.8029C4.51945 24.8779 5.19218 25.8566 6.04633 26.6821C6.90048 27.5076 7.91896 28.1634 9.04245 28.6112C10.1659 29.059 11.372 29.2899 12.5903 29.2904C17.5636 29.2637 21.6107 25.2316 21.5714 20.3407C21.5862 19.192 21.3608 18.052 20.9081 16.9868C20.4553 15.9215 19.7844 14.9524 18.9342 14.1356C18.084 13.3189 17.0715 12.6707 15.9555 12.2289C14.8395 11.787 13.6422 11.5603 12.4331 11.5618Z" fill="white"/>
<path d="M57.5061 31.7519H54.0091V28.4451C50.7478 31.7252 47.0319 33.1119 42.6087 32.3759C39.601 31.8558 36.9195 30.2553 35.1208 27.9064C33.1395 25.4847 32.1807 22.4477 32.4319 19.3896C32.6832 16.3316 34.1264 13.4727 36.4792 11.3725C37.6727 10.3097 39.0784 9.48511 40.6131 8.9476C42.1479 8.41009 43.7806 8.17055 45.4145 8.24316C47.0484 8.31576 48.6504 8.69903 50.1257 9.3703C51.601 10.0416 52.9196 10.9872 54.0034 12.1512C54.0034 11.1538 54.0315 10.3591 54.0034 9.56443C54.0034 8.97774 54.1775 8.71107 54.8342 8.73774C55.6986 8.77507 56.563 8.73774 57.5173 8.73774L57.5061 31.7519ZM45.1571 11.5698C40.1782 11.5432 36.0863 15.5113 36.0526 20.4075C36.0189 25.2077 40.1895 29.2878 45.1347 29.2985C50.0799 29.3091 54.1157 25.453 54.1718 20.5408C54.2392 15.506 50.3156 11.5965 45.174 11.5698H45.1571Z" fill="white"/>
<path d="M74.0421 11.3705L71.6734 13.7225C71.1332 13.2871 70.559 12.8913 69.9557 12.5385C69.1366 12.1018 68.2636 11.7632 67.3568 11.5305C66.6528 11.3732 65.9131 11.4545 65.2654 11.7603C64.6177 12.066 64.1027 12.5771 63.8093 13.2052C63.523 13.8034 63.4792 14.481 63.6864 15.1081C63.8936 15.7351 64.3371 16.2673 64.9319 16.6027C66.6664 17.7387 68.5075 18.7361 70.2757 19.8028C71.8305 20.7575 73.1159 21.9362 73.6436 23.7016C73.9581 24.7772 73.9963 25.9089 73.7551 27.0016C73.5138 28.0942 73.0001 29.1158 72.2571 29.9807C71.5141 30.8455 70.5635 31.5283 69.4852 31.9717C68.4069 32.415 67.2323 32.606 66.0602 32.5286C63.1862 32.4112 60.9522 31.1952 59.1055 28.9924L61.3507 26.6297C62.1422 27.2484 62.8214 27.8671 63.596 28.3631C64.3854 28.9257 65.3501 29.2214 66.3367 29.203C67.3234 29.1846 68.2752 28.8533 69.0408 28.2617C70.8875 26.795 70.8707 24.3523 68.9004 23.0349C67.5533 22.1282 66.0939 21.4028 64.6513 20.5868C62.8551 19.5574 61.1823 18.4054 60.5368 16.3626C59.6948 13.6959 60.4807 11.1571 62.6698 9.51439C63.8277 8.71341 65.2059 8.25007 66.6363 8.18093C68.0667 8.11179 69.4873 8.43985 70.7247 9.12505C71.8474 9.76507 72.8746 10.5651 74.0421 11.3705Z" fill="white"/>
<path d="M82.6812 8.75923H87.4243V11.7727H82.698V12.8874C82.698 17.7516 82.698 22.614 82.698 27.4746C82.698 29.112 82.8328 29.2293 84.5728 29.2506C85.1341 29.2506 85.6955 29.2506 86.3578 29.2506V32.3228C85.0519 32.4398 83.7402 32.4897 82.4286 32.4721C80.3237 32.3601 79.1786 31.2454 79.0888 29.272C78.9877 27.1386 79.0214 25.0052 79.0158 22.8397C79.0158 19.5863 79.0158 16.3328 79.0158 13.0794V11.81H74.8789V8.7539H79.0158V0.15625L82.6644 0.15625L82.6812 8.75923Z" fill="white"/>
<path d="M30.6678 0L26.834 0L26.834 31.9105H30.6678L30.6678 0Z" fill="#9DCB4C"/>
<path d="M92.8611 0.644531L88.8926 0.644531V32.7417H92.8611V0.644531Z" fill="white"/>
<path d="M95.0017 20.7335L108.165 9.47446L102.911 9.45312L89.6523 20.6269L103.747 32.734L109.001 32.7126L95.0017 20.7335Z" fill="#9DCB4C"/>
</svg>
