<svg width="92" height="36" viewBox="0 0 92 36" fill="none" xmlns="http://www.w3.org/2000/svg">
<path d="M0 35.9999V7.92485H3.04156V11.04C5.8415 7.83845 9.1389 6.80646 12.9906 7.60805C15.4791 8.14464 17.6775 9.60955 19.1495 11.712C20.7309 13.8794 21.4858 16.5528 21.2752 19.2396C21.0645 21.9265 19.9024 24.4456 18.003 26.3328C14.7388 29.6352 8.22927 31.0608 3.0842 25.6608V35.9999H0ZM10.4939 10.4064C6.20156 10.4064 2.87574 13.9104 2.88048 18.3792C2.86351 19.4209 3.0513 20.4556 3.43291 21.423C3.81452 22.3905 4.38232 23.2713 5.10324 24.0142C5.82416 24.7571 6.68379 25.3473 7.63204 25.7503C8.58029 26.1533 9.59822 26.3611 10.6265 26.3616C14.8241 26.3376 18.2399 22.7088 18.2067 18.3072C18.2193 17.2734 18.029 16.2474 17.6469 15.2887C17.2648 14.3301 16.6985 13.4579 15.9809 12.7228C15.2633 11.9878 14.4087 11.4045 13.4668 11.0068C12.5248 10.6092 11.5143 10.4051 10.4939 10.4064Z" fill="white"/>
<path d="M48.5372 28.5688H45.5856V25.5928C42.8331 28.5448 39.6968 29.7928 35.9635 29.1304C33.4249 28.6623 31.1617 27.2219 29.6435 25.108C27.9713 22.9286 27.162 20.1954 27.374 17.4432C27.5861 14.6911 28.8042 12.1182 30.79 10.2281C31.7973 9.2716 32.9838 8.52953 34.2792 8.04579C35.5746 7.56205 36.9525 7.34647 38.3316 7.41181C39.7107 7.47715 41.0628 7.82208 42.308 8.42619C43.5531 9.03031 44.6661 9.88133 45.5809 10.9289C45.5809 10.0313 45.6046 9.3161 45.5809 8.60091C45.5809 8.07291 45.7278 7.83291 46.2821 7.85691C47.0117 7.89051 47.7413 7.85691 48.5467 7.85691L48.5372 28.5688ZM38.1144 10.4057C33.9121 10.3817 30.4584 13.9529 30.4299 18.3593C30.4015 22.6792 33.9216 26.3512 38.0954 26.3608C42.2693 26.3704 45.6756 22.9 45.723 18.4793C45.7799 13.9481 42.4683 10.4297 38.1286 10.4057H38.1144Z" fill="white"/>
<path d="M62.4938 10.2377L60.4945 12.3545C60.0386 11.9627 59.554 11.6065 59.0448 11.2889C58.3534 10.8959 57.6167 10.5912 56.8513 10.3817C56.2571 10.2402 55.6327 10.3134 55.0861 10.5885C54.5394 10.8637 54.1047 11.3237 53.8571 11.8889C53.6154 12.4273 53.5785 13.0372 53.7534 13.6014C53.9282 14.1657 54.3026 14.6447 54.8046 14.9465C56.2686 15.9689 57.8225 16.8665 59.3149 17.8265C60.6272 18.6857 61.7121 19.7465 62.1574 21.3353C62.4229 22.3034 62.4552 23.3218 62.2516 24.3052C62.0479 25.2885 61.6144 26.2079 60.9873 26.9863C60.3601 27.7646 59.5578 28.3791 58.6477 28.7781C57.7375 29.1771 56.7462 29.349 55.7569 29.2793C53.3312 29.1737 51.4456 28.0793 49.887 26.0969L51.782 23.9705C52.45 24.5273 53.0233 25.0841 53.6771 25.5305C54.3433 26.0368 55.1576 26.3029 55.9903 26.2864C56.823 26.2698 57.6264 25.9717 58.2726 25.4393C59.8313 24.1193 59.8171 21.9209 58.1541 20.7353C57.0171 19.9193 55.7853 19.2665 54.5677 18.5321C53.0517 17.6057 51.6399 16.5689 51.0951 14.7305C50.3844 12.3305 51.0477 10.0457 52.8954 8.56735C53.8726 7.84649 55.0359 7.4295 56.2432 7.36728C57.4504 7.30506 58.6495 7.60029 59.6939 8.21695C60.6414 8.79295 61.5084 9.51295 62.4938 10.2377Z" fill="white"/>
<path d="M69.7853 7.88177H73.7886V10.5938H69.7995V11.597C69.7995 15.9745 69.7995 20.3505 69.7995 24.7249C69.7995 26.1985 69.9132 26.3041 71.3818 26.3233C71.8556 26.3233 72.3294 26.3233 72.8884 26.3233V29.0881C71.7862 29.1934 70.6791 29.2383 69.5721 29.2225C67.7955 29.1217 66.829 28.1185 66.7532 26.3425C66.6679 24.4225 66.6963 22.5025 66.6916 20.5537C66.6916 17.6257 66.6916 14.6977 66.6916 11.7698V10.6274H63.2V7.87697H66.6916V0.139404H69.7711L69.7853 7.88177Z" fill="white"/>
<path d="M25.8862 -0.000244141H22.6504V28.718H25.8862V-0.000244141Z" fill="#9DCB4C"/>
<path d="M78.3793 0.585693H75.0298V29.472H78.3793V0.585693Z" fill="white"/>
<path d="M80.1844 18.662L91.2942 8.52921L86.8597 8.51001L75.6694 18.566L87.5656 29.4619L92.0001 29.4427L80.1844 18.662Z" fill="#9DCB4C"/>
</svg>
